<mxfile host="app.diagrams.net" modified="2022-10-11T03:01:51.676Z" agent="5.0 (Windows NT 10.0; Win64; x64) AppleWebKit/537.36 (KHTML, like Gecko) Chrome/106.0.0.0 Safari/537.36 Edg/106.0.1370.37" etag="QYBkauiyqk1SHCIcSIqd" version="20.3.3" type="github">
  <diagram id="w0LF7Ui5Oa8wdqrxSOv6" name="第 1 页">
    <mxGraphModel dx="1020" dy="1104" grid="1" gridSize="10" guides="1" tooltips="1" connect="1" arrows="1" fold="1" page="1" pageScale="1" pageWidth="827" pageHeight="1169" math="0" shadow="0">
      <root>
        <mxCell id="0" />
        <mxCell id="1" parent="0" />
        <mxCell id="9bMEEHqavkLoDHvRxdts-9" style="edgeStyle=orthogonalEdgeStyle;rounded=0;orthogonalLoop=1;jettySize=auto;html=1;entryX=0;entryY=0.5;entryDx=0;entryDy=0;" edge="1" parent="1" source="9bMEEHqavkLoDHvRxdts-1" target="9bMEEHqavkLoDHvRxdts-4">
          <mxGeometry relative="1" as="geometry">
            <Array as="points">
              <mxPoint x="145" y="280" />
            </Array>
          </mxGeometry>
        </mxCell>
        <mxCell id="9bMEEHqavkLoDHvRxdts-16" value="申请信息" style="edgeLabel;html=1;align=center;verticalAlign=middle;resizable=0;points=[];" vertex="1" connectable="0" parent="9bMEEHqavkLoDHvRxdts-9">
          <mxGeometry x="0.2" y="-2" relative="1" as="geometry">
            <mxPoint as="offset" />
          </mxGeometry>
        </mxCell>
        <mxCell id="9bMEEHqavkLoDHvRxdts-10" style="edgeStyle=orthogonalEdgeStyle;rounded=0;orthogonalLoop=1;jettySize=auto;html=1;exitX=1;exitY=0.5;exitDx=0;exitDy=0;entryX=0;entryY=0.5;entryDx=0;entryDy=0;" edge="1" parent="1" source="9bMEEHqavkLoDHvRxdts-1" target="9bMEEHqavkLoDHvRxdts-6">
          <mxGeometry relative="1" as="geometry" />
        </mxCell>
        <mxCell id="9bMEEHqavkLoDHvRxdts-23" value="申请信息" style="edgeLabel;html=1;align=center;verticalAlign=middle;resizable=0;points=[];" vertex="1" connectable="0" parent="9bMEEHqavkLoDHvRxdts-10">
          <mxGeometry x="-0.2308" y="1" relative="1" as="geometry">
            <mxPoint as="offset" />
          </mxGeometry>
        </mxCell>
        <mxCell id="9bMEEHqavkLoDHvRxdts-11" style="edgeStyle=orthogonalEdgeStyle;rounded=0;orthogonalLoop=1;jettySize=auto;html=1;entryX=0;entryY=0.5;entryDx=0;entryDy=0;" edge="1" parent="1" source="9bMEEHqavkLoDHvRxdts-1" target="9bMEEHqavkLoDHvRxdts-5">
          <mxGeometry relative="1" as="geometry">
            <Array as="points">
              <mxPoint x="145" y="460" />
            </Array>
          </mxGeometry>
        </mxCell>
        <mxCell id="9bMEEHqavkLoDHvRxdts-24" value="申请信息" style="edgeLabel;html=1;align=center;verticalAlign=middle;resizable=0;points=[];" vertex="1" connectable="0" parent="9bMEEHqavkLoDHvRxdts-11">
          <mxGeometry x="0.3532" relative="1" as="geometry">
            <mxPoint as="offset" />
          </mxGeometry>
        </mxCell>
        <mxCell id="9bMEEHqavkLoDHvRxdts-1" value="学生/教职工" style="rounded=0;whiteSpace=wrap;html=1;" vertex="1" parent="1">
          <mxGeometry x="100" y="340" width="90" height="60" as="geometry" />
        </mxCell>
        <mxCell id="9bMEEHqavkLoDHvRxdts-13" style="edgeStyle=orthogonalEdgeStyle;rounded=0;orthogonalLoop=1;jettySize=auto;html=1;entryX=0.5;entryY=0;entryDx=0;entryDy=0;" edge="1" parent="1" source="9bMEEHqavkLoDHvRxdts-4" target="9bMEEHqavkLoDHvRxdts-8">
          <mxGeometry relative="1" as="geometry" />
        </mxCell>
        <mxCell id="9bMEEHqavkLoDHvRxdts-25" value="确认信息" style="edgeLabel;html=1;align=center;verticalAlign=middle;resizable=0;points=[];" vertex="1" connectable="0" parent="9bMEEHqavkLoDHvRxdts-13">
          <mxGeometry x="-0.3961" y="-2" relative="1" as="geometry">
            <mxPoint as="offset" />
          </mxGeometry>
        </mxCell>
        <mxCell id="9bMEEHqavkLoDHvRxdts-4" value="办卡" style="ellipse;whiteSpace=wrap;html=1;aspect=fixed;" vertex="1" parent="1">
          <mxGeometry x="320" y="240" width="80" height="80" as="geometry" />
        </mxCell>
        <mxCell id="9bMEEHqavkLoDHvRxdts-15" style="edgeStyle=orthogonalEdgeStyle;rounded=0;orthogonalLoop=1;jettySize=auto;html=1;entryX=0.344;entryY=1.017;entryDx=0;entryDy=0;entryPerimeter=0;" edge="1" parent="1" source="9bMEEHqavkLoDHvRxdts-5" target="9bMEEHqavkLoDHvRxdts-8">
          <mxGeometry relative="1" as="geometry">
            <mxPoint x="580" y="410" as="targetPoint" />
          </mxGeometry>
        </mxCell>
        <mxCell id="9bMEEHqavkLoDHvRxdts-28" value="确认信息" style="edgeLabel;html=1;align=center;verticalAlign=middle;resizable=0;points=[];" vertex="1" connectable="0" parent="9bMEEHqavkLoDHvRxdts-15">
          <mxGeometry x="-0.3833" y="4" relative="1" as="geometry">
            <mxPoint x="-4" y="4" as="offset" />
          </mxGeometry>
        </mxCell>
        <mxCell id="9bMEEHqavkLoDHvRxdts-5" value="退卡" style="ellipse;whiteSpace=wrap;html=1;aspect=fixed;" vertex="1" parent="1">
          <mxGeometry x="320" y="420" width="80" height="80" as="geometry" />
        </mxCell>
        <mxCell id="9bMEEHqavkLoDHvRxdts-14" style="edgeStyle=orthogonalEdgeStyle;rounded=0;orthogonalLoop=1;jettySize=auto;html=1;" edge="1" parent="1" source="9bMEEHqavkLoDHvRxdts-6" target="9bMEEHqavkLoDHvRxdts-8">
          <mxGeometry relative="1" as="geometry" />
        </mxCell>
        <mxCell id="9bMEEHqavkLoDHvRxdts-27" value="确认信息" style="edgeLabel;html=1;align=center;verticalAlign=middle;resizable=0;points=[];" vertex="1" connectable="0" parent="9bMEEHqavkLoDHvRxdts-14">
          <mxGeometry x="-0.2267" y="-1" relative="1" as="geometry">
            <mxPoint x="22" y="-1" as="offset" />
          </mxGeometry>
        </mxCell>
        <mxCell id="9bMEEHqavkLoDHvRxdts-6" value="挂失" style="ellipse;whiteSpace=wrap;html=1;aspect=fixed;" vertex="1" parent="1">
          <mxGeometry x="320" y="330" width="80" height="80" as="geometry" />
        </mxCell>
        <mxCell id="9bMEEHqavkLoDHvRxdts-19" style="edgeStyle=orthogonalEdgeStyle;rounded=0;orthogonalLoop=1;jettySize=auto;html=1;entryX=0;entryY=0.5;entryDx=0;entryDy=0;" edge="1" parent="1" source="9bMEEHqavkLoDHvRxdts-7" target="9bMEEHqavkLoDHvRxdts-17">
          <mxGeometry relative="1" as="geometry">
            <Array as="points">
              <mxPoint x="460" y="680" />
            </Array>
          </mxGeometry>
        </mxCell>
        <mxCell id="9bMEEHqavkLoDHvRxdts-20" value="注销" style="edgeLabel;html=1;align=center;verticalAlign=middle;resizable=0;points=[];" vertex="1" connectable="0" parent="9bMEEHqavkLoDHvRxdts-19">
          <mxGeometry x="-0.0291" y="2" relative="1" as="geometry">
            <mxPoint as="offset" />
          </mxGeometry>
        </mxCell>
        <mxCell id="9bMEEHqavkLoDHvRxdts-7" value="注销" style="ellipse;whiteSpace=wrap;html=1;aspect=fixed;" vertex="1" parent="1">
          <mxGeometry x="430" y="520" width="80" height="80" as="geometry" />
        </mxCell>
        <mxCell id="9bMEEHqavkLoDHvRxdts-12" style="edgeStyle=orthogonalEdgeStyle;rounded=0;orthogonalLoop=1;jettySize=auto;html=1;entryX=1;entryY=0.5;entryDx=0;entryDy=0;" edge="1" parent="1" source="9bMEEHqavkLoDHvRxdts-8" target="9bMEEHqavkLoDHvRxdts-7">
          <mxGeometry relative="1" as="geometry">
            <Array as="points">
              <mxPoint x="600" y="560" />
            </Array>
          </mxGeometry>
        </mxCell>
        <mxCell id="9bMEEHqavkLoDHvRxdts-30" value="提交信息" style="edgeLabel;html=1;align=center;verticalAlign=middle;resizable=0;points=[];" vertex="1" connectable="0" parent="9bMEEHqavkLoDHvRxdts-12">
          <mxGeometry x="0.024" y="-1" relative="1" as="geometry">
            <mxPoint as="offset" />
          </mxGeometry>
        </mxCell>
        <mxCell id="9bMEEHqavkLoDHvRxdts-18" style="edgeStyle=orthogonalEdgeStyle;rounded=0;orthogonalLoop=1;jettySize=auto;html=1;exitX=1;exitY=0.5;exitDx=0;exitDy=0;" edge="1" parent="1" source="9bMEEHqavkLoDHvRxdts-8" target="9bMEEHqavkLoDHvRxdts-17">
          <mxGeometry relative="1" as="geometry" />
        </mxCell>
        <mxCell id="9bMEEHqavkLoDHvRxdts-22" value="修改信息" style="edgeLabel;html=1;align=center;verticalAlign=middle;resizable=0;points=[];" vertex="1" connectable="0" parent="9bMEEHqavkLoDHvRxdts-18">
          <mxGeometry x="0.0323" y="1" relative="1" as="geometry">
            <mxPoint as="offset" />
          </mxGeometry>
        </mxCell>
        <mxCell id="9bMEEHqavkLoDHvRxdts-8" value="管理员" style="rounded=0;whiteSpace=wrap;html=1;" vertex="1" parent="1">
          <mxGeometry x="550" y="340" width="90" height="60" as="geometry" />
        </mxCell>
        <mxCell id="9bMEEHqavkLoDHvRxdts-17" value="饭卡信息数据" style="shape=partialRectangle;whiteSpace=wrap;html=1;left=0;right=0;fillColor=none;" vertex="1" parent="1">
          <mxGeometry x="610" y="650" width="120" height="60" as="geometry" />
        </mxCell>
      </root>
    </mxGraphModel>
  </diagram>
</mxfile>
